<?xml version="1.0" encoding="UTF-8" standalone="no"?>
<svg
   width="120"
   height="120"
   viewBox="0 0 120 120"
   version="1.1"
   id="svg26"
   sodipodi:docname="Tiempo.svg"
   xml:space="preserve"
   inkscape:version="1.2.1 (9c6d41e, 2022-07-14)"
   inkscape:export-filename="Tiempo.png"
   inkscape:export-xdpi="800"
   inkscape:export-ydpi="800"
   xmlns:inkscape="http://www.inkscape.org/namespaces/inkscape"
   xmlns:sodipodi="http://sodipodi.sourceforge.net/DTD/sodipodi-0.dtd"
   xmlns:xlink="http://www.w3.org/1999/xlink"
   xmlns="http://www.w3.org/2000/svg"
   xmlns:svg="http://www.w3.org/2000/svg"
   xmlns:i="http://ns.adobe.com/AdobeIllustrator/10.0/"><defs
     id="defs30"><linearGradient
       inkscape:collect="always"
       id="linearGradient21692"><stop
         style="stop-color:#e49e3a;stop-opacity:1;"
         offset="0.3289431"
         id="stop21688" /><stop
         style="stop-color:#c0ad32;stop-opacity:0.99607843;"
         offset="0.68545306"
         id="stop22422" /><stop
         style="stop-color:#5bbd2b;stop-opacity:0.99585062;"
         offset="1"
         id="stop21690" /></linearGradient><linearGradient
       inkscape:collect="always"
       id="linearGradient12758"><stop
         style="stop-color:#26a69a;stop-opacity:1;"
         offset="0.48706192"
         id="stop12754" /><stop
         style="stop-color:#00c9c9;stop-opacity:0.99585062;"
         offset="1"
         id="stop12756" /></linearGradient><filter
       style="color-interpolation-filters:sRGB;"
       inkscape:label="Drop Shadow"
       id="filter5216"
       x="-6.9660615"
       y="-6.9660615"
       width="14.744908"
       height="14.744908"><feFlood
         flood-opacity="0.521569"
         flood-color="rgb(0,0,0)"
         result="flood"
         id="feFlood5206" /><feComposite
         in="flood"
         in2="SourceGraphic"
         operator="out"
         result="composite1"
         id="feComposite5208" /><feGaussianBlur
         in="composite1"
         stdDeviation="58.75"
         result="blur"
         id="feGaussianBlur5210" /><feOffset
         dx="-3.89408"
         dy="-3.89408"
         result="offset"
         id="feOffset5212" /><feComposite
         in="offset"
         in2="SourceGraphic"
         operator="atop"
         result="fbSourceGraphic"
         id="feComposite5214" /><feColorMatrix
         result="fbSourceGraphicAlpha"
         in="fbSourceGraphic"
         values="0 0 0 -1 0 0 0 0 -1 0 0 0 0 -1 0 0 0 0 1 0"
         id="feColorMatrix5218" /><feFlood
         id="feFlood5220"
         flood-opacity="0.521569"
         flood-color="rgb(0,0,0)"
         result="flood"
         in="fbSourceGraphic" /><feComposite
         in2="fbSourceGraphic"
         id="feComposite5222"
         in="flood"
         operator="out"
         result="composite1" /><feGaussianBlur
         id="feGaussianBlur5224"
         in="composite1"
         stdDeviation="58.75"
         result="blur" /><feOffset
         id="feOffset5226"
         dx="-3.89408"
         dy="-3.89408"
         result="offset" /><feComposite
         in2="fbSourceGraphic"
         id="feComposite5228"
         in="offset"
         operator="atop"
         result="fbSourceGraphic" /><feColorMatrix
         result="fbSourceGraphicAlpha"
         in="fbSourceGraphic"
         values="0 0 0 -1 0 0 0 0 -1 0 0 0 0 -1 0 0 0 0 1 0"
         id="feColorMatrix5230" /><feFlood
         id="feFlood5232"
         flood-opacity="0.521569"
         flood-color="rgb(0,0,0)"
         result="flood"
         in="fbSourceGraphic" /><feComposite
         in2="fbSourceGraphic"
         id="feComposite5234"
         in="flood"
         operator="out"
         result="composite1" /><feGaussianBlur
         id="feGaussianBlur5236"
         in="composite1"
         stdDeviation="58.75"
         result="blur" /><feOffset
         id="feOffset5238"
         dx="-3.89408"
         dy="-3.89408"
         result="offset" /><feComposite
         in2="fbSourceGraphic"
         id="feComposite5240"
         in="offset"
         operator="atop"
         result="fbSourceGraphic" /><feColorMatrix
         result="fbSourceGraphicAlpha"
         in="fbSourceGraphic"
         values="0 0 0 -1 0 0 0 0 -1 0 0 0 0 -1 0 0 0 0 1 0"
         id="feColorMatrix5242" /><feFlood
         id="feFlood5244"
         flood-opacity="0.521569"
         flood-color="rgb(0,0,0)"
         result="flood"
         in="fbSourceGraphic" /><feComposite
         in2="fbSourceGraphic"
         id="feComposite5246"
         in="flood"
         operator="out"
         result="composite1" /><feGaussianBlur
         id="feGaussianBlur5248"
         in="composite1"
         stdDeviation="58.75"
         result="blur" /><feOffset
         id="feOffset5250"
         dx="-3.89408"
         dy="-3.89408"
         result="offset" /><feComposite
         in2="fbSourceGraphic"
         id="feComposite5252"
         in="offset"
         operator="atop"
         result="fbSourceGraphic" /><feColorMatrix
         result="fbSourceGraphicAlpha"
         in="fbSourceGraphic"
         values="0 0 0 -1 0 0 0 0 -1 0 0 0 0 -1 0 0 0 0 1 0"
         id="feColorMatrix5254" /><feFlood
         id="feFlood5256"
         flood-opacity="0.521569"
         flood-color="rgb(0,0,0)"
         result="flood"
         in="fbSourceGraphic" /><feComposite
         in2="fbSourceGraphic"
         id="feComposite5258"
         in="flood"
         operator="out"
         result="composite1" /><feGaussianBlur
         id="feGaussianBlur5260"
         in="composite1"
         stdDeviation="58.75"
         result="blur" /><feOffset
         id="feOffset5262"
         dx="-3.89408"
         dy="-3.89408"
         result="offset" /><feComposite
         in2="fbSourceGraphic"
         id="feComposite5264"
         in="offset"
         operator="atop"
         result="composite2" /></filter><filter
       style="color-interpolation-filters:sRGB;"
       inkscape:label="Drop Shadow"
       id="filter7215"
       x="-0.11346154"
       y="-0.057692308"
       width="1.1711538"
       height="1.1528277"><feFlood
         flood-opacity="0.27451"
         flood-color="rgb(0,0,0)"
         result="flood"
         id="feFlood7205" /><feComposite
         in="flood"
         in2="SourceGraphic"
         operator="out"
         result="composite1"
         id="feComposite7207" /><feGaussianBlur
         in="composite1"
         stdDeviation="2.5"
         result="blur"
         id="feGaussianBlur7209" /><feOffset
         dx="-5.8"
         dy="3.89408"
         result="offset"
         id="feOffset7211" /><feComposite
         in="offset"
         in2="SourceGraphic"
         operator="atop"
         result="composite2"
         id="feComposite7213" /></filter><filter
       style="color-interpolation-filters:sRGB;"
       inkscape:label="Drop Shadow"
       id="filter9686"
       x="-0.087258583"
       y="-0.06"
       width="1.1472586"
       height="1.1394704"><feFlood
         flood-opacity="0.368627"
         flood-color="rgb(0,0,0)"
         result="flood"
         id="feFlood9676" /><feComposite
         in="flood"
         in2="SourceGraphic"
         operator="in"
         result="composite1"
         id="feComposite9678" /><feGaussianBlur
         in="composite1"
         stdDeviation="3"
         result="blur"
         id="feGaussianBlur9680" /><feOffset
         dx="-3.27103"
         dy="2.33645"
         result="offset"
         id="feOffset9682" /><feComposite
         in="SourceGraphic"
         in2="offset"
         operator="over"
         result="composite2"
         id="feComposite9684" /></filter><filter
       style="color-interpolation-filters:sRGB;"
       inkscape:label="Drop Shadow"
       id="filter11510"
       x="-0.035885965"
       y="-0.064773168"
       width="1.0604053"
       height="1.1475629"><feFlood
         flood-opacity="0.368627"
         flood-color="rgb(0,0,0)"
         result="flood"
         id="feFlood11500" /><feComposite
         in="flood"
         in2="SourceGraphic"
         operator="in"
         result="composite1"
         id="feComposite11502" /><feGaussianBlur
         in="composite1"
         stdDeviation="0.7"
         result="blur"
         id="feGaussianBlur11504" /><feOffset
         dx="-0.778816"
         dy="0.46729"
         result="offset"
         id="feOffset11506" /><feComposite
         in="SourceGraphic"
         in2="offset"
         operator="over"
         result="composite2"
         id="feComposite11508" /></filter><linearGradient
       inkscape:collect="always"
       xlink:href="#linearGradient12758"
       id="linearGradient12760"
       x1="-10.47103"
       y1="120.56371"
       x2="-10.47103"
       y2="9.1055231"
       gradientUnits="userSpaceOnUse" /><filter
       style="color-interpolation-filters:sRGB;"
       inkscape:label="Drop Shadow"
       id="filter15557"
       x="-0.030804481"
       y="-0.025991281"
       width="1.0567958"
       height="1.0564809"><feFlood
         flood-opacity="0.368627"
         flood-color="rgb(0,0,0)"
         result="flood"
         id="feFlood15547" /><feComposite
         in="flood"
         in2="SourceGraphic"
         operator="in"
         result="composite1"
         id="feComposite15549" /><feGaussianBlur
         in="composite1"
         stdDeviation="0.5"
         result="blur"
         id="feGaussianBlur15551" /><feOffset
         dx="-0.5"
         dy="0.46729"
         result="offset"
         id="feOffset15553" /><feComposite
         in="SourceGraphic"
         in2="offset"
         operator="over"
         result="composite2"
         id="feComposite15555" /></filter><filter
       style="color-interpolation-filters:sRGB;"
       inkscape:label="Drop Shadow"
       id="filter20946"
       x="-0.0078183431"
       y="-0.0055189446"
       width="1.0133372"
       height="1.0133374"><feFlood
         flood-opacity="0.439216"
         flood-color="rgb(0,0,0)"
         result="flood"
         id="feFlood20936" /><feComposite
         in="flood"
         in2="SourceGraphic"
         operator="in"
         result="composite1"
         id="feComposite20938" /><feGaussianBlur
         in="composite1"
         stdDeviation="1"
         result="blur"
         id="feGaussianBlur20940" /><feOffset
         dx="-1"
         dy="1"
         result="offset"
         id="feOffset20942" /><feComposite
         in="SourceGraphic"
         in2="offset"
         operator="over"
         result="composite2"
         id="feComposite20944" /></filter><linearGradient
       inkscape:collect="always"
       xlink:href="#linearGradient21692"
       id="linearGradient21694"
       x1="12.307737"
       y1="37.641502"
       x2="103.31652"
       y2="84.507629"
       gradientUnits="userSpaceOnUse" /></defs><sodipodi:namedview
     id="namedview28"
     pagecolor="#ffffff"
     bordercolor="#000000"
     borderopacity="0.25"
     inkscape:showpageshadow="2"
     inkscape:pageopacity="0.0"
     inkscape:pagecheckerboard="0"
     inkscape:deskcolor="#d1d1d1"
     showgrid="false"
     inkscape:zoom="3.9260763"
     inkscape:cx="31.965757"
     inkscape:cy="44.701118"
     inkscape:window-width="1390"
     inkscape:window-height="967"
     inkscape:window-x="530"
     inkscape:window-y="25"
     inkscape:window-maximized="0"
     inkscape:current-layer="svg26" /><rect
     style="fill:#26a69a;stroke-width:9.37934;stop-color:#000000;fill-opacity:1.0"
     id="rect376"
     width="120"
     height="120"
     x="0"
     y="0"
     ry="0" /><circle
     cx="60"
     cy="60"
     r="52"
     fill="#ffffff"
     id="circle4"
     style="fill-rule:evenodd;fill:#2bbdaf;fill-opacity:0" /><path
     id="circle4-0"
     style="fill-rule:evenodd;fill:url(#linearGradient21694);fill-opacity:1"
     d="M 51.003906 21.212891 C 50.425724 21.192269 49.695583 21.231365 48.484375 21.318359 C 46.970434 21.427097 45.005583 21.56457 44.119141 21.625 C 41.049856 21.834208 38.953858 22.176606 39.0625 22.449219 C 39.180271 22.744743 38.889376 22.837955 37.320312 23.009766 C 35.333764 23.227292 35.906438 23.780544 38.529297 24.177734 C 38.999899 24.249 39.584435 24.462765 39.830078 24.654297 C 40.218671 24.957295 40.247793 25.067126 40.042969 25.5 C 39.833438 25.94282 39.854702 26.014196 40.25 26.136719 C 40.680422 26.27013 40.677567 26.278897 40.140625 26.453125 C 39.509684 26.657851 39.374995 27.088517 39.990234 26.933594 C 40.211847 26.877778 40.392578 26.911103 40.392578 27.007812 C 40.392578 27.104534 40.286025 27.183594 40.15625 27.183594 C 40.026468 27.183594 39.755367 27.327323 39.552734 27.503906 C 39.264821 27.754803 39.183594 28.112791 39.183594 29.140625 C 39.183594 30.815798 39.413266 31.376274 40.236328 31.722656 C 41.229726 32.14072 41.514312 32.092221 42.109375 31.402344 C 43.777105 29.468876 44.153256 29.185049 45.367188 28.955078 C 46.016455 28.83208 46.863277 28.526976 47.248047 28.275391 C 48.039015 27.75821 51.382617 26.716578 51.681641 26.894531 C 51.860223 27.000805 51.895891 26.883326 51.957031 26.025391 C 51.968148 25.869404 52.296065 25.535769 52.683594 25.283203 C 53.104001 25.009201 53.359149 24.697165 53.318359 24.509766 C 53.280757 24.337026 53.409014 24.084792 53.601562 23.949219 C 53.897704 23.740707 53.908994 23.65441 53.681641 23.390625 C 53.456483 23.129441 53.460862 23.049954 53.703125 22.902344 C 53.862205 22.805415 54.094328 22.726109 54.21875 22.724609 C 54.433494 22.721789 56.3084 21.969909 56.308594 21.886719 C 56.308649 21.865029 55.78757 21.840338 55.150391 21.830078 C 54.513203 21.819818 53.372804 21.654596 52.615234 21.464844 C 52.009146 21.313035 51.582088 21.233512 51.003906 21.212891 z M 37.271484 21.666016 C 35.467056 21.709169 33.326643 21.785296 32.234375 21.863281 C 31.347925 21.926572 30.41455 22.106498 30.162109 22.261719 C 29.90967 22.416964 29.615491 22.489871 29.507812 22.425781 C 29.40014 22.361702 29.3125 22.523533 29.3125 22.785156 C 29.3125 23.305724 29.718347 23.551994 30.269531 23.365234 C 30.508512 23.284269 30.556478 23.310348 30.419922 23.445312 C 30.01976 23.840798 28.750723 24.114266 28.328125 23.896484 C 27.668641 23.556627 27.095703 23.640793 27.095703 24.078125 C 27.095703 24.336783 26.961975 24.466797 26.693359 24.466797 C 26.471747 24.466797 26.291016 24.345893 26.291016 24.197266 C 26.291016 23.823885 25.693286 23.637842 25.357422 23.90625 C 24.807869 24.345423 25.056377 24.638271 26.039062 24.712891 C 26.565394 24.752857 27.033388 24.801093 27.080078 24.820312 C 27.126754 24.839545 27.335522 24.705913 27.544922 24.523438 C 27.873095 24.237444 27.950782 24.230432 28.107422 24.474609 C 28.241633 24.683838 28.735965 24.763617 29.994141 24.779297 C 31.718873 24.800773 32.562662 24.613982 31.878906 24.361328 C 31.689605 24.291378 31.125125 24.264424 30.625 24.302734 C 29.79247 24.366491 29.477687 24.243098 29.873047 24.007812 C 29.95968 23.956259 30.751844 23.892927 31.634766 23.867188 C 32.914796 23.82988 33.475868 23.711228 34.402344 23.279297 C 35.440376 22.795355 36.113576 22.603817 39.083984 21.943359 C 39.527201 21.84481 40.071364 21.720942 40.292969 21.669922 C 40.544383 21.612044 39.075913 21.622863 37.271484 21.666016 z M 28.216797 22.720703 C 27.860866 22.720703 27.632145 23.039998 27.800781 23.302734 C 28.019869 23.644084 28.505859 23.511003 28.505859 23.109375 C 28.505859 22.895982 28.37646 22.720703 28.216797 22.720703 z M 26.066406 22.798828 C 25.917001 22.791823 25.781792 22.8038 25.685547 22.841797 C 25.463041 22.929641 25.543277 23.030182 25.988281 23.222656 C 26.655884 23.511427 27.125816 23.50362 27.103516 23.205078 C 27.089205 23.013284 26.514621 22.819842 26.066406 22.798828 z M 96.136719 23.498047 C 95.698224 23.537887 95.237627 23.673678 95.039062 23.878906 C 94.770573 24.156411 94.422022 24.254947 93.761719 24.242188 C 92.924642 24.226009 92.008858 24.34685 91.101562 24.59375 C 90.813494 24.672143 90.786823 24.750874 90.974609 24.96875 C 91.173139 25.199096 91.057487 25.242188 90.255859 25.242188 C 89.428982 25.242188 89.333838 25.281499 89.550781 25.533203 C 89.688721 25.693249 89.976824 25.824219 90.191406 25.824219 C 90.405982 25.824219 90.525711 25.912545 90.457031 26.019531 C 90.373575 26.149559 90.207394 26.149559 89.955078 26.019531 C 89.48251 25.775996 88.341797 25.763307 88.341797 26.001953 C 88.341797 26.099757 88.455243 26.225477 88.59375 26.279297 C 88.742582 26.337119 88.699203 26.381525 88.488281 26.390625 C 88.291995 26.399049 88.02856 26.188618 87.902344 25.921875 C 87.77612 25.655134 87.5851 25.4375 87.478516 25.4375 C 87.371926 25.4375 87.391734 25.560393 87.521484 25.710938 C 87.70175 25.920489 87.700715 26.018753 87.515625 26.128906 C 87.332744 26.23772 87.341155 26.325856 87.554688 26.490234 C 87.709983 26.609777 87.942123 26.878908 88.070312 27.089844 C 88.309778 27.483852 88.390836 27.500264 88.996094 27.273438 C 89.202176 27.196212 89.349609 27.22994 89.349609 27.355469 C 89.349609 27.473578 89.15002 27.570312 88.90625 27.570312 C 88.571512 27.570312 88.519856 27.625968 88.695312 27.794922 C 88.986116 28.074943 88.662482 28.734375 88.234375 28.734375 C 87.881227 28.734375 87.852272 28.507117 88.167969 28.203125 C 88.3899 27.989423 88.313004 27.861083 87.128906 26.462891 C 87.019766 26.334022 86.931641 26.094235 86.931641 25.929688 C 86.931641 25.759839 86.756089 25.630859 86.527344 25.630859 C 86.305731 25.630859 86.125 25.544198 86.125 25.4375 C 86.125 25.040352 85.723071 25.261691 85.419922 25.826172 C 85.059375 26.497541 85.259806 27.076358 85.923828 27.279297 C 86.145557 27.34706 86.326172 27.494548 86.326172 27.605469 C 86.326172 27.719389 86.173754 27.747755 85.974609 27.671875 C 85.780694 27.59799 85.076948 27.424213 84.412109 27.285156 C 83.74728 27.146098 82.932024 26.973094 82.599609 26.902344 L 81.996094 26.775391 L 82.548828 27.082031 C 82.853547 27.251022 83.103524 27.408381 83.103516 27.431641 C 83.103516 27.454911 82.690621 27.489063 82.185547 27.507812 C 81.680472 27.52658 81.136317 27.645769 80.976562 27.773438 C 80.744673 27.958757 80.685547 27.944997 80.685547 27.703125 C 80.685547 27.428977 80.594611 27.430072 79.728516 27.707031 C 79.202192 27.87534 78.628053 28.13204 78.453125 28.277344 C 78.043943 28.617182 77.791636 28.614959 77.927734 28.273438 C 78.061618 27.937481 77.6947 27.570312 77.224609 27.570312 C 76.923947 27.570313 76.899283 27.650027 77.064453 28.068359 C 77.324065 28.725849 77.313551 28.795161 76.974609 28.669922 C 76.817194 28.611756 76.450289 28.778403 76.158203 29.039062 C 75.772594 29.383176 75.492181 29.480911 75.134766 29.394531 C 74.834514 29.321975 74.642578 29.359076 74.642578 29.490234 C 74.642578 29.608498 74.732947 29.705078 74.84375 29.705078 C 74.954557 29.705078 75.044922 29.79486 75.044922 29.904297 C 75.044922 30.210442 73.877193 29.56039 73.630859 29.117188 C 73.425407 28.747527 73.471411 28.729564 74.511719 28.771484 C 75.553543 28.813463 76.379105 28.50543 76.15625 28.158203 C 76.105393 28.078979 75.068679 27.768967 73.851562 27.46875 C 72.634446 27.168531 71.685318 26.850319 71.742188 26.761719 C 71.943872 26.447487 69.46817 26.494366 67.894531 26.833984 C 66.588311 27.115892 65.250648 27.688958 65.605469 27.816406 C 65.795834 27.884785 65.682181 28.093603 65.222656 28.509766 C 64.861971 28.836408 64.478595 29.325395 64.371094 29.597656 C 64.231414 29.951424 64.026913 30.091797 63.65625 30.091797 C 62.994816 30.091797 62.035296 30.567482 61.873047 30.974609 C 61.678176 31.463608 61.72531 32.033203 61.960938 32.033203 C 62.078277 32.033203 62.116392 32.123006 62.044922 32.234375 C 61.861626 32.519954 62.327585 33.001953 62.787109 33.001953 C 62.999049 33.001953 63.399218 32.860048 63.675781 32.685547 C 63.95236 32.511068 64.198416 32.402209 64.222656 32.443359 C 65.044351 33.837305 65.087821 34.166016 64.455078 34.166016 C 64.202132 34.166016 64.066438 33.80593 64.142578 33.341797 C 64.190661 33.048542 63.612866 33.208163 63.257812 33.585938 C 62.951922 33.911412 62.931339 34.055128 63.128906 34.472656 C 63.43709 35.123973 63.328511 35.255074 62.359375 35.404297 C 61.733632 35.500653 61.526234 35.630899 61.433594 35.986328 C 61.367883 36.238415 61.071655 36.563253 60.775391 36.707031 C 60.479125 36.850808 60.067392 37.131923 59.859375 37.332031 C 59.616351 37.565829 59.284822 37.667097 58.931641 37.617188 C 58.50354 37.55669 58.400607 37.609876 58.466797 37.853516 C 58.535972 38.108238 58.417042 38.149744 57.832031 38.083984 C 56.954718 37.985362 56.885147 38.30947 57.695312 38.712891 C 58.358992 39.04337 58.525391 39.359529 58.525391 40.289062 C 58.525391 41.101138 58.109952 41.24605 56.480469 41 C 55.131309 40.796277 54.812742 40.966494 54.757812 41.925781 C 54.736439 42.299216 54.686804 43.070019 54.646484 43.638672 C 54.575941 44.633467 54.590843 44.669527 55.044922 44.585938 C 55.592928 44.485064 56.142516 45.085363 55.960938 45.585938 C 55.897651 45.760408 55.406922 46.315901 54.869141 46.820312 C 54.136463 47.507517 53.890625 47.8803 53.890625 48.308594 C 53.890625 48.722479 53.718076 49.005293 53.263672 49.332031 C 52.365157 49.978112 51.271484 51.082484 51.271484 51.34375 C 51.271484 51.466409 51.090753 51.724855 50.869141 51.917969 C 50.647528 52.111092 50.466797 52.387892 50.466797 52.535156 C 50.466797 52.68242 50.319943 53.019686 50.140625 53.283203 C 49.876319 53.671608 49.861621 53.817084 50.066406 54.054688 C 50.379779 54.418278 50.225236 56.731756 49.859375 57.15625 C 49.679238 57.365277 49.670731 57.516593 49.828125 57.699219 C 49.947891 57.838141 49.994881 58.142035 49.931641 58.375 C 49.844122 58.697251 49.996474 58.949813 50.570312 59.431641 C 50.98515 59.779954 51.488301 60.408751 51.6875 60.830078 C 51.923408 61.329046 52.491793 61.915365 53.318359 62.511719 C 54.586441 63.426621 54.587739 63.428373 55.296875 63.138672 C 55.773484 62.94397 56.319241 62.887637 56.958984 62.966797 C 57.693845 63.057727 58.09396 62.993503 58.712891 62.689453 C 59.5166 62.294637 60.646722 62.176034 61.0625 62.443359 C 61.184412 62.521745 61.392149 62.783366 61.523438 63.023438 C 61.706461 63.358087 61.939955 63.458984 62.521484 63.458984 C 62.938644 63.458984 63.388517 63.565322 63.521484 63.693359 C 63.826431 63.987009 63.829893 64.846817 63.53125 65.806641 C 63.318284 66.491084 63.343315 66.603021 63.849609 67.242188 C 64.537008 68.110004 65.587353 70.313724 65.533203 70.775391 C 65.510867 70.965789 65.565727 71.440889 65.654297 71.830078 C 65.778214 72.374568 65.717004 72.750452 65.390625 73.460938 C 64.615366 75.14855 64.634713 75.630281 65.554688 77.597656 C 66.063545 78.685839 66.380859 79.656781 66.380859 80.117188 C 66.380859 80.587649 66.686207 81.492611 67.201172 82.550781 C 67.652002 83.477156 67.981374 84.340066 67.933594 84.46875 C 67.885783 84.597436 67.977116 84.947559 68.134766 85.248047 C 68.389195 85.733035 68.492034 85.779861 69.0625 85.654297 C 69.415977 85.576504 70.024286 85.498982 70.412109 85.482422 C 72.106651 85.41003 72.868855 84.945198 74.470703 83.015625 C 75.073645 82.289315 75.449572 81.646203 75.451172 81.332031 C 75.454955 80.709322 75.613197 80.464352 76.212891 80.160156 C 76.880471 79.821508 77.108678 79.100568 76.845703 78.160156 C 76.636909 77.413521 76.657512 77.348166 77.296875 76.707031 C 77.665059 76.337823 78.31048 75.864656 78.730469 75.65625 C 79.977123 75.037633 80.198223 73.746363 79.476562 71.316406 C 79.254951 70.570209 79.074219 69.737645 79.074219 69.464844 C 79.074219 68.567314 80.052808 67.051958 81.640625 65.494141 C 83.845353 63.331084 85.320312 60.994414 85.320312 59.662109 C 85.320313 59.069587 85.262231 58.976776 84.966797 59.085938 C 84.773137 59.1575 84.161697 59.30922 83.607422 59.421875 C 83.053145 59.534524 82.453392 59.700506 82.273438 59.791016 C 81.909068 59.974269 81.291016 59.461854 81.291016 58.976562 C 81.291016 58.82158 80.747929 58.177573 80.083984 57.544922 C 79.420033 56.912263 78.778483 56.106807 78.658203 55.755859 C 78.537922 55.404912 78.354163 55.119141 78.251953 55.119141 C 78.149739 55.119141 78.066406 54.909571 78.066406 54.654297 C 78.066406 54.399023 77.568421 53.265785 76.958984 52.136719 C 76.349556 51.007652 75.851562 50.038462 75.851562 49.982422 C 75.851562 49.737845 76.536408 49.91182 76.791016 50.220703 C 77.502389 51.083724 78.433484 52.57791 78.648438 53.205078 C 78.77874 53.585262 79.109015 54.099975 79.382812 54.347656 C 79.656617 54.595336 79.880859 54.900481 79.880859 55.025391 C 79.880859 55.150301 80.06159 55.410394 80.283203 55.603516 C 80.695686 55.96296 80.847167 56.401454 80.484375 56.185547 C 80.183642 56.006579 80.238422 56.202038 80.685547 56.908203 C 80.906748 57.257551 81.087487 57.685717 81.087891 57.859375 C 81.089569 58.564457 81.607642 58.66543 82.919922 58.216797 C 84.327807 57.735469 85.451095 57.154649 85.982422 56.634766 C 86.180642 56.440806 86.517076 56.283203 86.730469 56.283203 C 86.943862 56.283203 87.206374 56.126483 87.3125 55.935547 C 87.418625 55.744602 87.737847 55.467486 88.023438 55.320312 C 88.309028 55.173132 88.542969 54.899362 88.542969 54.712891 C 88.542969 54.52642 88.610259 54.346077 88.693359 54.310547 C 88.776465 54.274984 89.000807 53.973738 89.191406 53.642578 C 89.528086 53.057618 89.526343 53.03022 89.091797 52.644531 C 88.845797 52.426183 88.461846 52.216344 88.240234 52.177734 C 87.995765 52.135122 87.753788 51.858802 87.625 51.476562 L 87.414062 50.845703 L 86.832031 51.429688 C 86.076917 52.188625 85.119141 52.251364 85.119141 51.541016 C 85.119141 51.280573 85.026819 51.013166 84.916016 50.947266 C 84.805209 50.881326 84.714844 50.92021 84.714844 51.033203 C 84.714844 51.43452 84.317982 51.230719 84.197266 50.767578 C 84.129784 50.508683 83.901098 50.145374 83.689453 49.960938 C 83.250533 49.57845 83.193639 49.095997 83.546875 48.755859 C 83.923403 48.393295 84.069413 48.466359 84.611328 49.292969 C 85.272855 50.302049 86.12019 50.724236 87.150391 50.556641 C 87.788059 50.452902 87.939453 50.486005 87.939453 50.732422 C 87.939453 50.900879 88.16263 51.082942 88.441406 51.138672 C 88.71842 51.194053 89.195282 51.289093 89.5 51.351562 C 89.804718 51.414009 90.65337 51.461078 91.384766 51.455078 C 92.562874 51.445009 92.769035 51.500036 93.197266 51.943359 C 93.463122 52.218577 93.890504 52.522008 94.146484 52.617188 C 94.402514 52.712369 94.551416 52.882472 94.478516 52.996094 C 94.323856 53.237056 94.937918 53.955078 95.298828 53.955078 C 95.434348 53.955078 95.677984 53.762082 95.839844 53.527344 C 96.119593 53.121634 96.139988 53.155877 96.267578 54.201172 C 96.404378 55.322017 96.807891 56.476153 98.068359 59.357422 C 98.952038 61.377369 99.090722 61.521749 99.582031 60.9375 C 100.06149 60.367352 100.42969 60.572399 100.42969 61.410156 C 100.42969 62.509554 101.14161 62.716008 101.48242 61.714844 C 101.61757 61.317842 100.85372 60.305991 100.51367 60.431641 C 100.17584 60.55647 99.939672 60.23825 100.23828 60.060547 C 100.36809 59.983313 100.43741 59.366605 100.41211 58.53125 L 100.36914 57.132812 L 101.91016 55.662109 C 102.75761 54.853984 103.45117 54.053341 103.45117 53.880859 C 103.45117 53.708377 103.52042 53.560687 103.60352 53.554688 C 104.72134 53.471999 105.35304 53.347856 105.57812 53.167969 C 105.79399 52.995457 105.88048 53.056485 105.98438 53.455078 C 106.05679 53.73293 106.3331 54.123832 106.59766 54.324219 C 106.86223 54.524605 107.07812 54.775903 107.07812 54.880859 C 107.07812 54.985809 107.21465 55.179675 107.38086 55.3125 C 107.54706 55.445325 107.68164 55.848617 107.68164 56.208984 C 107.68164 56.720638 107.76518 56.863281 108.06055 56.863281 C 108.2686 56.863281 108.55151 56.734259 108.68945 56.574219 C 108.82739 56.414171 109.01126 56.283203 109.09766 56.283203 C 109.53227 56.283203 110.28694 59.790316 110.08398 60.867188 C 110.01156 61.25141 110.11113 61.536006 110.2832 61.433594 C 110.54755 61.276276 111.34203 62.59132 111.39062 63.267578 C 111.40615 63.483488 111.54461 63.760108 111.71289 64.023438 A 52 52 0 0 0 111.85547 62.007812 C 111.44203 61.605033 111.10742 61.21272 111.10742 61.101562 C 111.10742 60.974797 110.96117 60.716718 110.7832 60.527344 C 110.49965 60.22559 110.49201 60.062361 110.7207 59.203125 C 110.96706 58.277548 111.30859 57.877094 111.30859 58.513672 C 111.30859 58.673712 111.41009 58.804688 111.53516 58.804688 C 111.61119 58.804687 111.77678 58.901225 111.97656 59.042969 A 52 52 0 0 0 97.269531 23.755859 C 97.216674 23.733804 97.120844 23.715391 97.105469 23.691406 C 96.991944 23.514531 96.575213 23.458207 96.136719 23.498047 z M 22.835938 23.953125 C 22.787485 23.955101 22.68545 24.00827 22.617188 24.03125 A 52 52 0 0 0 21.890625 24.757812 C 21.97524 24.746968 22.0329 24.734142 22.113281 24.724609 C 23.153441 24.60127 23.329239 24.487819 23.080078 24.099609 C 23.014612 23.997608 22.946244 23.948626 22.835938 23.953125 z M 24.458984 25.048828 C 23.870454 25.048828 23.671875 25.128196 23.671875 25.361328 C 23.671875 25.558709 23.5605 25.631257 23.369141 25.560547 C 23.006298 25.426475 22.973001 25.657325 23.308594 25.980469 C 23.603553 26.264499 23.657105 26.264542 24.427734 26.005859 C 24.765587 25.89245 25.086488 25.63051 25.142578 25.423828 C 25.230664 25.099462 25.13828 25.048828 24.458984 25.048828 z M 26.980469 25.060547 C 26.366285 25.051268 26.046647 25.165678 25.710938 25.509766 C 25.464099 25.762774 24.948311 26.130085 24.566406 26.328125 C 24.184503 26.526167 23.873047 26.799765 23.873047 26.935547 C 23.873047 27.078984 23.626747 27.183594 23.285156 27.183594 C 22.493963 27.183594 22.058594 27.36288 22.058594 27.689453 C 22.058594 28.035423 20.014626 28.064222 19.453125 27.726562 C 19.428784 27.711925 19.40806 27.717291 19.384766 27.705078 A 52 52 0 0 0 8.2324219 56.761719 C 8.5308916 56.83281 8.7764793 56.831673 9.0664062 56.779297 C 9.6953656 56.665676 9.8605031 56.722626 10.341797 57.21875 C 10.661642 57.548445 11.363894 57.930142 12.005859 58.125 C 12.826218 58.374011 13.203907 58.612415 13.457031 59.037109 C 13.645353 59.353076 13.798828 59.697788 13.798828 59.802734 C 13.798828 60.339614 16.355829 61.852076 16.701172 61.519531 C 16.811492 61.413241 16.827458 61.326172 16.736328 61.326172 C 16.645197 61.326172 16.684326 61.195196 16.822266 61.035156 C 17.203789 60.592492 17.391247 60.679005 17.724609 61.447266 C 18.173265 62.481218 18.125478 63.897604 17.626953 64.332031 C 17.405348 64.525152 17.224609 64.791736 17.224609 64.923828 C 17.224609 65.05592 17.10552 65.208299 16.960938 65.261719 C 16.816348 65.31514 16.576706 65.713777 16.427734 66.148438 C 16.206571 66.793755 16.204238 66.994521 16.416016 67.240234 C 16.630558 67.489155 16.616124 67.605682 16.328125 67.912109 C 15.925586 68.340419 16.022539 68.830636 16.712891 69.861328 C 17.49494 71.02893 17.991872 71.853895 18.730469 73.207031 C 19.314423 74.276871 19.698615 74.693884 20.830078 75.486328 C 21.591407 76.019544 22.272593 76.6519 22.345703 76.892578 C 22.537109 77.522791 22.863171 81.724661 22.970703 84.953125 C 23.021521 86.478782 23.153828 87.892597 23.265625 88.09375 C 23.377433 88.294904 23.471056 88.705419 23.472656 89.005859 C 23.476377 89.745034 23.679541 90.425781 23.896484 90.425781 C 23.994359 90.425781 24.084363 90.272657 24.095703 90.085938 C 24.107015 89.899219 24.212962 90.039779 24.332031 90.398438 C 24.507685 90.92759 24.492395 91.080328 24.25 91.210938 C 23.859931 91.421152 23.991454 92.751953 24.402344 92.751953 C 24.598674 92.751953 24.649379 92.892256 24.568359 93.203125 C 24.48046 93.540349 24.684408 93.950524 25.384766 94.847656 C 26.491143 96.264899 27.061568 96.688176 28.408203 97.085938 C 29.687263 97.463733 29.760704 97.465215 30.230469 97.130859 C 30.60353 96.865336 30.588341 96.839526 29.890625 96.556641 C 29.143273 96.25362 28.095398 95.233719 28.111328 94.824219 C 28.116191 94.699029 28.24869 94.252645 28.404297 93.832031 C 28.666534 93.123198 28.658724 93.048104 28.294922 92.802734 C 27.87411 92.518924 27.762926 91.695196 28.117188 91.484375 C 28.235658 91.413927 28.287742 91.242388 28.232422 91.103516 C 28.177075 90.964635 28.251867 90.693026 28.398438 90.5 C 28.62893 90.196478 28.607429 90.121437 28.248047 89.947266 C 27.568033 89.617677 27.588104 89.261719 28.287109 89.261719 C 28.836663 89.261719 28.910156 89.197361 28.910156 88.705078 C 28.910156 88.199854 28.986394 88.138376 29.740234 88.041016 C 30.196876 87.982028 30.660239 87.845396 30.771484 87.738281 C 31.108654 87.413613 31.000591 86.610547 30.533203 85.978516 C 30.28997 85.649891 30.181156 85.380859 30.292969 85.380859 C 30.404781 85.380859 30.552644 85.469474 30.621094 85.576172 C 30.824115 85.892491 31.844566 85.796156 32.177734 85.429688 C 32.347496 85.242978 32.606403 84.741247 32.753906 84.314453 C 32.901417 83.887668 33.173811 83.408093 33.359375 83.248047 C 33.907032 82.775725 34.146484 82.165452 34.146484 81.244141 C 34.146484 80.421422 34.193868 80.349768 35.103516 79.804688 C 35.629838 79.4893 36.352312 79.121591 36.707031 78.988281 C 37.061744 78.854962 37.483707 78.549767 37.646484 78.310547 C 38.009307 77.77734 38.378906 75.93998 38.378906 74.662109 C 38.378906 73.937113 38.513897 73.524537 38.955078 72.904297 C 40.047929 71.367912 40.438352 70.444655 40.298828 69.728516 C 40.227694 69.363376 40.015919 69.011002 39.828125 68.945312 C 39.640324 68.879654 39.056932 68.485058 38.533203 68.068359 C 38.009476 67.651654 37.483735 67.368903 37.365234 67.439453 C 37.019628 67.645128 35.154297 67.330373 35.154297 67.066406 C 35.154297 66.936139 34.827305 66.679574 34.427734 66.496094 C 33.869232 66.239638 33.635809 66.214191 33.419922 66.386719 C 33.199852 66.562584 33.140625 66.544032 33.140625 66.302734 C 33.140625 66.133379 32.961627 65.903095 32.744141 65.791016 C 32.526625 65.678934 32.394842 65.473354 32.451172 65.332031 C 32.50749 65.190707 32.413433 64.963021 32.242188 64.826172 C 32.070934 64.689313 31.931641 64.394997 31.931641 64.173828 C 31.931641 63.514485 30.951674 62.683594 30.173828 62.683594 C 29.344272 62.683594 27.902344 62.00444 27.902344 61.613281 C 27.902344 61.455403 27.827168 61.326172 27.736328 61.326172 C 27.645477 61.326172 27.260937 61.06679 26.880859 60.75 C 26.500789 60.433209 26.092644 60.09578 25.974609 60 C 25.856581 59.904208 25.236324 59.821706 24.595703 59.816406 C 23.372875 59.805821 22.261719 59.480852 22.261719 59.134766 C 22.261719 59.022417 22.034826 59.136129 21.757812 59.386719 C 21.4808 59.637309 21.253906 59.971627 21.253906 60.130859 C 21.253906 60.29009 21.197116 60.366451 21.128906 60.300781 C 21.060694 60.235089 21.10635 59.901432 21.230469 59.558594 C 21.354606 59.215756 21.430677 58.909946 21.398438 58.878906 C 21.254058 58.739889 19.187521 59.875413 19.087891 60.148438 C 19.026625 60.316334 18.839228 60.607337 18.671875 60.794922 C 18.388956 61.112016 18.342774 61.113409 18.001953 60.816406 C 17.726454 60.576346 17.415166 60.525751 16.751953 60.613281 C 16.003784 60.71203 15.804754 60.661541 15.439453 60.287109 C 14.960514 59.796208 14.9067 59.262583 15.224609 58.160156 C 15.521621 57.130219 15.243543 56.863281 13.875 56.863281 C 13.279135 56.863281 12.791622 56.79876 12.791016 56.71875 C 12.79048 56.638727 13.030867 55.938224 13.324219 55.162109 C 13.617579 54.386002 13.802368 53.698356 13.736328 53.634766 C 13.670275 53.570866 13.311084 53.575098 12.9375 53.642578 C 12.423749 53.735389 12.187864 53.917537 11.970703 54.392578 C 11.726583 54.926609 11.536833 55.047462 10.699219 55.203125 C 9.7520534 55.379153 9.6957482 55.365683 9.2441406 54.820312 C 8.5615123 53.995961 8.4998798 53.411871 8.9589844 52.126953 C 9.1836422 51.498185 9.3671875 50.821069 9.3671875 50.623047 C 9.3671875 50.39766 9.7912085 50.002247 10.501953 49.564453 C 11.492252 48.954465 11.74789 48.879506 12.498047 48.978516 C 13.12142 49.060784 13.425643 49.013025 13.603516 48.806641 C 13.894101 48.469474 15.613281 48.409267 15.613281 48.736328 C 15.613281 48.867858 15.804203 48.905351 16.107422 48.832031 C 16.683264 48.692863 17.069809 49.180765 16.894531 49.826172 C 16.780163 50.247329 17.31348 51.431641 17.617188 51.431641 C 17.906643 51.431641 18.082176 50.30398 17.9375 49.375 C 17.7685 48.289817 18.164709 47.707464 19.785156 46.664062 C 21.126159 45.800585 21.646144 45.275015 21.652344 44.773438 C 21.659763 44.187356 23.635722 42.563024 24.636719 42.320312 C 25.203782 42.182819 25.485978 42.019296 25.423828 41.863281 C 25.265316 41.465524 25.759341 40.996363 26.777344 40.576172 C 27.761405 40.169999 28.679267 40.019798 28.128906 40.355469 C 27.976205 40.4486 27.905929 40.61169 27.974609 40.71875 C 28.05188 40.839134 28.542347 40.733389 29.259766 40.439453 C 29.897785 40.178045 30.579529 39.915009 30.773438 39.855469 C 30.967345 39.795906 31.125 39.567207 31.125 39.347656 C 31.125 38.95131 31.121231 38.952234 30.658203 39.371094 C 30.093517 39.881916 29.68242 39.905027 29.255859 39.451172 C 28.961695 39.138175 28.966486 39.070411 29.320312 38.626953 C 29.532423 38.361116 29.708638 38.078057 29.710938 37.998047 C 29.718947 37.737754 28.703829 37.844836 28.042969 38.173828 C 27.443088 38.472453 27.416578 38.472453 27.673828 38.173828 C 27.825907 37.997291 28.066004 37.851562 28.205078 37.851562 C 28.344152 37.851562 28.569091 37.720588 28.707031 37.560547 C 28.889169 37.349214 29.38013 37.268625 30.496094 37.265625 C 31.594756 37.262572 32.285182 37.152304 32.919922 36.875 L 33.806641 36.486328 L 32.818359 37.507812 L 31.830078 38.529297 L 32.933594 38.660156 C 33.539992 38.732198 34.069838 38.887899 34.111328 39.007812 C 34.16652 39.167257 34.2621 39.165143 34.46875 39 C 34.828066 38.712881 34.845079 37.658203 34.490234 37.658203 C 34.032304 37.658203 33.725324 37.234543 33.974609 36.945312 C 34.096329 36.804073 34.135827 36.689453 34.060547 36.689453 C 33.985296 36.689453 34.055848 36.505209 34.21875 36.28125 C 34.583656 35.779592 34.306375 34.823575 33.746094 34.652344 C 33.27333 34.507864 33.100939 34.101125 33.011719 32.921875 C 32.972058 32.397587 32.895477 31.92673 32.841797 31.875 C 32.788081 31.823277 32.381692 32.02325 31.939453 32.318359 C 30.980184 32.958478 30.423471 32.868768 30.576172 32.099609 C 30.729914 31.325173 29.878998 30.689541 28.679688 30.681641 C 27.795825 30.675842 27.728175 30.71392 27.390625 31.402344 C 27.194432 31.802456 26.861884 32.247642 26.652344 32.390625 C 26.353258 32.594706 26.321454 32.707919 26.505859 32.921875 C 26.861046 33.333982 26.293038 34.03137 25.197266 34.527344 C 24.471207 34.855975 24.275391 35.046239 24.275391 35.421875 C 24.275391 35.683911 24.073609 36.078806 23.826172 36.300781 C 23.403752 36.679725 23.360739 36.68472 23.121094 36.369141 C 22.934806 36.123833 22.925928 35.995204 23.091797 35.896484 C 23.216757 35.822101 23.258334 35.667208 23.183594 35.550781 C 23.108871 35.434363 23.145795 35.162866 23.265625 34.947266 C 23.457746 34.601579 23.423515 34.554688 22.970703 34.554688 C 22.451614 34.554687 21.798173 34.271726 21.296875 33.828125 C 21.146333 33.694919 20.804424 33.531877 20.535156 33.466797 C 20.242504 33.396064 20.044922 33.207747 20.044922 32.998047 C 20.044922 32.805112 19.931476 32.609333 19.792969 32.564453 C 19.341469 32.418132 20.036079 31.848408 21.644531 31.044922 C 22.481756 30.626698 23.302547 30.21279 23.46875 30.125 C 23.634962 30.037206 24.262732 29.734229 24.863281 29.451172 L 25.955078 28.935547 L 25.386719 29.507812 C 24.894316 30.002712 24.861369 30.097561 25.152344 30.205078 C 25.337558 30.273525 25.610833 30.232301 25.759766 30.113281 C 25.914439 29.989671 26.302343 29.949861 26.664062 30.019531 C 27.474752 30.175661 27.468983 29.942038 26.644531 29.25 C 26.283397 28.946882 26.146503 28.749094 26.339844 28.808594 C 26.533185 28.868087 27.09156 28.750468 27.580078 28.548828 C 28.280001 28.259931 28.496225 28.056293 28.603516 27.585938 C 28.730865 27.027591 28.799071 26.988281 29.644531 26.988281 C 30.622485 26.988281 31.410587 27.284233 31.220703 27.580078 C 31.155661 27.68142 30.879848 27.765625 30.609375 27.765625 C 30.103252 27.765625 29.953034 28.032266 30.332031 28.257812 C 30.449818 28.32791 30.706688 28.244716 30.902344 28.074219 C 31.097993 27.903722 31.364358 27.765625 31.494141 27.765625 C 31.902466 27.765625 31.750906 28.323115 31.277344 28.5625 C 31.028034 28.688526 30.746674 28.917951 30.652344 29.072266 C 30.534068 29.265747 30.283148 29.317264 29.845703 29.240234 C 29.146364 29.117096 28.580362 29.350628 28.789062 29.675781 C 28.882516 29.821448 29.087335 29.823232 29.46875 29.683594 C 29.942733 29.51007 30.074265 29.550815 30.466797 29.990234 C 31.001231 30.588514 32.535156 31.191372 32.535156 30.802734 C 32.535156 30.668761 32.425937 30.454209 32.292969 30.326172 C 31.954634 30.000382 32.352615 30.04595 32.820312 30.386719 C 33.165351 30.638118 33.236681 30.627626 33.484375 30.287109 C 33.688382 30.006604 33.707541 29.80587 33.552734 29.527344 C 33.437001 29.319108 33.341797 29.055117 33.341797 28.941406 C 33.341797 28.616324 33.889396 28.7007 34.027344 29.046875 C 34.165152 29.392664 34.930449 29.29566 35.591797 28.849609 C 35.948581 28.609007 35.948652 28.590217 35.576172 28.265625 C 35.364216 28.080925 35.023939 27.903907 34.820312 27.873047 C 34.556665 27.833083 34.465446 27.676607 34.503906 27.330078 C 34.559253 26.831244 33.876881 26.212891 33.271484 26.212891 C 33.114122 26.212891 32.833903 25.992343 32.650391 25.722656 C 32.336661 25.261593 32.23417 25.237601 30.90625 25.306641 C 30.129531 25.347028 29.389046 25.478958 29.261719 25.601562 C 28.901247 25.948686 28.625701 25.8647 28.935547 25.501953 C 29.187055 25.207496 29.148228 25.189838 28.515625 25.310547 C 27.342056 25.534478 26.307097 26.794922 27.296875 26.794922 C 27.97377 26.794922 27.74732 27.327441 26.851562 27.841797 C 25.94715 28.361088 25.657727 28.362927 26.103516 27.845703 C 26.334919 27.577267 26.328578 27.494402 26.064453 27.306641 C 25.893075 27.184818 25.689491 26.845417 25.613281 26.550781 C 25.493839 26.088874 25.551693 25.985962 26.033203 25.802734 C 26.340353 25.685859 26.864851 25.473853 27.197266 25.332031 L 27.800781 25.074219 L 26.980469 25.060547 z M 21.46875 25.353516 C 21.423703 25.342772 21.366046 25.352578 21.292969 25.376953 C 21.270509 25.384445 21.246956 25.415081 21.222656 25.425781 A 52 52 0 0 0 19.623047 27.386719 C 19.793151 27.394943 19.995267 27.371855 20.146484 27.396484 C 21.319721 27.587564 21.582335 27.378618 21.609375 26.234375 C 21.62414 25.610193 21.603891 25.385746 21.46875 25.353516 z M 50.927734 28.824219 C 50.602355 28.801967 50.263672 28.936706 50.263672 29.142578 C 50.263672 29.237855 50.409933 29.316406 50.587891 29.316406 C 50.765849 29.316406 51.093462 29.538065 51.314453 29.808594 C 51.552466 30.099963 51.850014 30.263674 52.046875 30.208984 C 52.229642 30.1582 52.762271 30.020243 53.228516 29.904297 C 54.172601 29.669516 54.432635 29.420689 54.117188 29.054688 C 53.966196 28.8795 53.573909 28.846743 52.740234 28.939453 C 52.098906 29.010772 51.422218 28.993894 51.236328 28.902344 C 51.143649 28.856701 51.036194 28.831636 50.927734 28.824219 z M 69.353516 29.128906 L 70.109375 29.134766 L 69.568359 29.59375 C 69.271085 29.845839 68.912259 30.089576 68.771484 30.134766 C 68.471033 30.231213 68.460576 31.588782 68.757812 31.875 C 68.887128 31.999471 69.398699 32.000526 70.236328 31.876953 C 70.941448 31.772903 71.588918 31.728514 71.673828 31.777344 C 72.014346 31.973166 71.552123 32.227469 70.851562 32.230469 C 69.849412 32.234472 69.443143 32.483732 69.787109 32.882812 C 70.126967 33.277137 69.8779 33.690265 69.488281 33.378906 C 68.992725 32.982878 68.532837 33.32239 68.669922 33.982422 C 68.772373 34.475687 68.713297 34.600122 68.287109 34.787109 C 67.925887 34.945588 67.719702 34.950273 67.564453 34.800781 C 67.409204 34.651288 67.139458 34.675426 66.619141 34.884766 C 66.077311 35.102759 65.801325 35.123346 65.541016 34.966797 C 65.316707 34.831904 65.148552 34.825378 65.070312 34.947266 C 65.003242 35.051773 64.861067 35.136719 64.755859 35.136719 C 64.650678 35.136719 64.678008 34.961442 64.816406 34.748047 C 65.102961 34.30622 65.57102 34.248162 65.96875 34.603516 C 66.190873 34.801978 66.214814 34.780809 66.107422 34.488281 C 66.013129 34.231398 66.0907 34.102387 66.380859 34.029297 C 66.662239 33.958445 66.785156 33.764884 66.785156 33.390625 C 66.785156 33.026442 66.953672 32.747373 67.308594 32.523438 L 67.832031 32.193359 L 67.408203 31.908203 C 67.175737 31.751415 66.986328 31.493686 66.986328 31.335938 C 66.986328 30.847881 67.587979 30.134842 68.105469 30.009766 C 68.420994 29.933513 68.597656 29.753732 68.597656 29.507812 C 68.597656 29.191983 68.732612 29.123906 69.353516 29.128906 z M 58.34375 32.535156 C 58.26334 32.531217 58.153998 32.542887 58.015625 32.568359 C 57.303195 32.699501 56.689331 33.494389 56.892578 34.023438 C 56.980221 34.251577 57.224671 34.530768 57.435547 34.642578 C 58.201879 35.048877 58.309789 35.432195 57.699219 35.585938 C 57.466172 35.644617 57.335023 35.786381 57.408203 35.900391 C 57.481298 36.014272 57.445469 36.107422 57.328125 36.107422 C 57.210781 36.107422 57.115234 36.194082 57.115234 36.300781 C 57.115234 36.407477 57.260966 36.494141 57.439453 36.494141 C 57.689011 36.494141 57.652869 36.58672 57.287109 36.894531 L 56.8125 37.294922 L 57.617188 37.160156 C 58.060412 37.085536 58.713656 37.010001 59.068359 36.994141 C 59.833045 36.959983 59.861838 36.939388 60.041016 36.251953 C 60.140973 35.868486 60.10311 35.715231 59.90625 35.707031 C 59.553946 35.692482 58.296212 33.817561 58.541016 33.671875 C 58.846937 33.489811 58.749038 33.197266 58.382812 33.197266 C 58.116435 33.197266 58.095176 33.143952 58.283203 32.962891 C 58.566281 32.690307 58.584981 32.546974 58.34375 32.535156 z M 56.511719 34.498047 C 56.273256 34.437997 55.959789 34.529833 55.765625 34.716797 C 55.581576 34.894021 55.333563 35.040433 55.214844 35.041016 C 55.096128 35.041532 54.998047 35.229073 54.998047 35.458984 C 54.998047 35.688899 54.930766 35.942668 54.847656 36.023438 C 54.764536 36.10421 54.697266 36.256417 54.697266 36.359375 C 54.697266 36.577438 56.280174 36.411798 56.509766 36.169922 C 56.593711 36.081475 56.721649 35.693685 56.792969 35.306641 C 56.90381 34.70505 56.863051 34.586517 56.511719 34.498047 z M 76.916016 39.015625 C 77.267794 39.015625 77.26646 39.046804 76.875 39.576172 L 76.460938 40.134766 L 77.011719 40.363281 C 77.314867 40.488326 77.916528 40.888872 78.347656 41.253906 C 79.006644 41.811854 79.090921 41.964634 78.876953 42.212891 C 78.73697 42.375309 78.519466 42.497695 78.394531 42.484375 C 77.517746 42.390653 76.492799 42.163539 76.152344 41.988281 C 75.855876 41.835663 75.437555 41.856723 74.568359 42.068359 C 73.293123 42.378864 72.425781 42.207064 72.425781 41.644531 C 72.425781 41.356955 73.079906 40.11788 73.486328 39.636719 C 73.732452 39.345354 74.541016 39.400851 74.541016 39.708984 C 74.541016 40.045607 75.204624 40.594791 75.345703 40.375 C 75.414707 40.267494 75.664142 40.179688 75.900391 40.179688 C 76.309116 40.179688 76.312821 40.167678 75.960938 39.919922 C 75.607857 39.671313 75.613062 39.644971 76.068359 39.337891 C 76.33062 39.161004 76.711519 39.015625 76.916016 39.015625 z M 83.060547 39.117188 C 83.20349 39.087567 83.355858 39.118038 83.572266 39.197266 C 84.112651 39.395092 84.140366 39.986328 83.609375 39.986328 C 83.468584 39.986328 83.245174 40.114232 83.111328 40.269531 C 82.912401 40.500334 82.999915 40.663344 83.589844 41.162109 C 83.986772 41.497691 84.263901 41.843081 84.207031 41.931641 C 84.150177 42.020223 84.195981 42.147814 84.308594 42.214844 C 84.42121 42.281852 84.513672 42.243852 84.513672 42.130859 C 84.513672 41.777645 84.890737 41.906253 85.132812 42.341797 C 85.340192 42.714918 85.321015 42.748434 84.939453 42.652344 C 84.404648 42.517687 84.375569 42.910029 84.886719 43.355469 C 85.091527 43.533943 85.265991 43.939616 85.275391 44.257812 C 85.291069 44.788854 85.237184 44.835938 84.613281 44.835938 C 84.239411 44.835938 83.877044 44.749276 83.808594 44.642578 C 83.74011 44.535882 83.517677 44.449219 83.314453 44.449219 C 82.922192 44.449219 82.602495 43.948443 82.886719 43.779297 C 82.97945 43.72411 83.098261 43.463927 83.150391 43.201172 C 83.221501 42.84299 83.07395 42.563142 82.560547 42.083984 C 81.643534 41.228138 81.218889 40.401237 81.517578 40.054688 C 81.641736 39.910635 81.839236 39.792969 81.957031 39.792969 C 82.074826 39.792969 82.367684 39.615311 82.607422 39.398438 C 82.785333 39.237496 82.917604 39.146808 83.060547 39.117188 z M 65.28125 39.861328 C 65.429263 39.838028 65.614044 39.982008 65.929688 40.339844 C 66.233791 40.684589 66.936207 41.252044 67.490234 41.601562 C 68.236422 42.072303 68.485282 42.344344 68.451172 42.652344 C 68.42464 42.892079 68.643146 43.299508 68.966797 43.613281 C 69.275548 43.912604 69.586976 44.309377 69.660156 44.496094 C 69.835667 44.943767 70.117317 44.92614 70.630859 44.431641 L 71.050781 44.025391 L 70.630859 43.59375 C 70.153428 43.10439 70.091736 42.860659 70.460938 42.917969 C 70.599444 42.939477 70.878719 42.889027 71.080078 42.804688 C 71.530466 42.616031 71.665091 42.75856 72.087891 43.867188 C 72.367297 44.599822 72.542036 44.775793 73.175781 44.966797 C 73.658427 45.112287 73.975044 45.126864 74.052734 45.005859 C 74.129764 44.885827 74.367405 44.900442 74.701172 45.046875 C 75.113647 45.227869 75.362152 45.224896 75.847656 45.03125 C 76.188617 44.895259 76.531915 44.845342 76.609375 44.919922 C 76.893684 45.193696 76.69681 46.571295 76.28125 47.21875 C 75.869629 47.860072 75.798026 47.88866 74.349609 47.994141 C 72.990264 48.093129 72.705921 48.047299 71.40625 47.521484 C 70.145394 47.01137 69.894995 46.967591 69.382812 47.171875 C 68.800802 47.404022 68.721689 47.54339 68.789062 48.183594 C 68.824932 48.54372 68.302592 48.653513 68.09375 48.328125 C 68.025266 48.221436 67.763006 48.132812 67.509766 48.132812 C 67.256526 48.132812 66.78484 47.915053 66.462891 47.648438 C 66.140941 47.381831 65.685541 47.16419 65.451172 47.164062 C 65.216802 47.163935 64.78776 46.98264 64.496094 46.761719 C 64.065804 46.435802 64.004871 46.290708 64.171875 45.990234 C 64.412949 45.556487 64.238166 44.710158 63.880859 44.578125 C 63.744303 44.527674 62.642448 44.608658 61.431641 44.757812 C 59.316381 45.018375 58.322266 45.301448 58.322266 45.644531 C 58.322266 45.892591 56.553169 45.835278 56.390625 45.582031 C 56.21008 45.300733 56.849917 44.835938 57.417969 44.835938 C 57.874781 44.835937 59.17957 43.835358 59.09375 43.550781 C 58.993894 43.21965 59.552938 42.508449 60.142578 42.214844 C 60.505767 42.033991 60.740234 41.762611 60.740234 41.525391 C 60.740234 41.194231 60.858135 41.140704 61.509766 41.177734 C 61.9703 41.203894 62.473482 41.090248 62.763672 40.894531 C 63.453797 40.42908 63.674725 40.482414 64.152344 41.226562 C 64.38474 41.588641 64.870434 42.019089 65.230469 42.183594 C 65.590502 42.34811 66.101315 42.705999 66.367188 42.978516 C 66.820815 43.443466 66.830008 43.495574 66.515625 43.830078 C 66.285614 44.074824 65.991342 44.160222 65.576172 44.101562 C 64.808724 43.993104 64.805333 44.160082 65.566406 44.539062 C 66.304247 44.906785 66.380859 44.907817 66.380859 44.544922 C 66.380859 44.384874 66.49521 44.253906 66.634766 44.253906 C 67.021416 44.253906 67.377966 43.575433 67.246094 43.089844 C 67.145026 42.717762 67.188424 42.67729 67.560547 42.791016 C 68.389506 43.044366 67.985268 42.596303 66.962891 42.128906 C 65.781558 41.588847 64.735985 40.330971 65.142578 39.939453 C 65.187248 39.896439 65.231912 39.869095 65.28125 39.861328 z M 17.173828 52.839844 C 16.470763 52.788281 15.787913 52.848428 15.511719 53.048828 C 15.290269 53.209497 15.177516 53.405175 15.259766 53.484375 C 15.342017 53.563577 15.584902 53.475227 15.800781 53.287109 C 16.15784 52.975977 16.273 52.968967 17.0625 53.220703 C 17.638241 53.404279 18.017045 53.673176 18.191406 54.017578 C 18.415451 54.460156 18.58157 54.535156 19.316406 54.535156 C 20.390378 54.535156 20.585419 54.367396 19.96875 53.970703 C 19.70583 53.801565 19.253818 53.499789 18.962891 53.300781 C 18.601578 53.053624 17.876893 52.891406 17.173828 52.839844 z M 21.771484 54.535156 C 21.187422 54.535156 21.052734 54.608378 21.052734 54.923828 C 21.052734 55.182484 20.91706 55.3125 20.648438 55.3125 C 20.426825 55.3125 20.246094 55.410154 20.246094 55.529297 C 20.246094 55.656007 20.455808 55.707244 20.753906 55.652344 C 21.033561 55.600895 21.308661 55.627771 21.363281 55.712891 C 21.417913 55.798018 21.70888 55.743922 22.011719 55.591797 C 22.314556 55.439679 22.722108 55.313076 22.916016 55.3125 C 23.109924 55.311841 23.267578 55.227936 23.267578 55.125 C 23.267578 54.821415 22.543706 54.535156 21.771484 54.535156 z M 108.61328 62.822266 C 108.38337 63.04365 108.48367 63.200723 108.99219 63.423828 C 109.2692 63.545365 109.49609 63.775678 109.49609 63.935547 C 109.49609 64.095424 109.70833 64.361087 109.96875 64.525391 C 110.46009 64.835392 111.20773 66.073426 111.5 66.984375 A 52 52 0 0 0 111.66602 64.662109 C 111.4314 64.462928 111.17658 64.272249 111.01562 64.113281 C 110.34497 63.450892 108.81423 62.628778 108.61328 62.822266 z M 84.578125 73.037109 C 84.445573 72.978426 84.277473 73.120059 83.902344 73.541016 C 83.573153 73.910419 83.304688 74.273269 83.304688 74.349609 C 83.304688 74.425944 82.939056 74.644132 82.492188 74.833984 C 81.599753 75.213135 81.370562 75.677873 81.570312 76.703125 C 81.656253 77.144265 81.572496 77.554844 81.291016 78.060547 C 80.760758 79.013257 80.773686 79.832693 81.328125 80.330078 C 81.853352 80.801255 81.777885 80.794187 82.478516 80.445312 C 82.961759 80.204679 83.120331 79.891434 83.591797 78.261719 C 84.305859 75.793411 84.559645 75.04388 84.755859 74.818359 C 84.981527 74.558926 84.949112 73.507842 84.705078 73.160156 C 84.66241 73.099364 84.622309 73.056671 84.578125 73.037109 z " /><g
     id="g20011"
     transform="matrix(0.22158685,0,0,0.22158685,11.818903,11.819678)"
     style="fill:#ffffff;filter:url(#filter20946)"><g
       i:knockout="Off"
       id="g19921"
       style="fill:#ffffff"><g
         id="g19919"
         style="fill:#ffffff"><path
           i:knockout="Off"
           d="m 217.44,401.5 v 28.53"
           fill="none"
           id="path19915"
           style="fill:#ffffff" /><path
           d="m 212.44,401.5 v 28.53 c 0,6.448 10,6.448 10,0 V 401.5 c 0,-6.44 -10,-6.44 -10,0 z"
           i:knockout="Off"
           id="path19917"
           style="fill:#ffffff" /></g></g><g
       i:knockout="Off"
       id="g19929"
       style="fill:#ffffff"><g
         id="g19927"
         style="fill:#ffffff"><path
           i:knockout="Off"
           d="m 126.24,377.12 -15.109,24.47"
           fill="none"
           id="path19923"
           style="fill:#ffffff" /><path
           d="m 121.93,374.6 c -5.036,8.156 -10.073,16.313 -15.109,24.47 -3.398,5.503 5.254,10.521 8.635,5.047 5.036,-8.156 10.073,-16.313 15.109,-24.47 3.39,-5.51 -5.26,-10.53 -8.64,-5.05 z"
           i:knockout="Off"
           id="path19925"
           style="fill:#ffffff" /></g></g><g
       i:knockout="Off"
       id="g19937"
       style="fill:#ffffff"><g
         id="g19935"
         style="fill:#ffffff"><path
           i:knockout="Off"
           d="m 58.029,308.99 -24.75,14.748"
           fill="none"
           id="path19931"
           style="fill:#ffffff" /><path
           d="m 55.506,304.67 -24.75,14.748 c -5.533,3.297 -0.506,11.944 5.047,8.635 l 24.75,-14.748 c 5.532,-3.3 0.506,-11.95 -5.047,-8.64 z"
           i:knockout="Off"
           id="path19933"
           style="fill:#ffffff" /></g></g><g
       i:knockout="Off"
       id="g19945"
       style="fill:#ffffff"><g
         id="g19943"
         style="fill:#ffffff"><path
           i:knockout="Off"
           d="M 32.931,217.44 H 4.836"
           fill="none"
           id="path19939"
           style="fill:#ffffff" /><path
           d="M 32.931,212.44 H 4.836 c -6.449,0 -6.449,10 0,10 h 28.095 c 6.449,0 6.449,-10 0,-10 z"
           i:knockout="Off"
           id="path19941"
           style="fill:#ffffff" /></g></g><g
       i:knockout="Off"
       id="g19953"
       style="fill:#ffffff"><g
         id="g19951"
         style="fill:#ffffff"><path
           i:knockout="Off"
           d="M 58.39,125.09 33.28,111.138"
           fill="none"
           id="path19947"
           style="fill:#ffffff" /><path
           d="m 60.913,120.77 c -8.37,-4.651 -16.74,-9.301 -25.11,-13.952 -5.642,-3.135 -10.684,5.503 -5.047,8.635 8.37,4.651 16.74,9.301 25.11,13.952 5.642,3.13 10.684,-5.51 5.047,-8.64 z"
           i:knockout="Off"
           id="path19949"
           style="fill:#ffffff" /></g></g><g
       i:knockout="Off"
       id="g19961"
       style="fill:#ffffff"><g
         id="g19959"
         style="fill:#ffffff"><path
           i:knockout="Off"
           d="M 124.81,57.492 111.14,33.28"
           fill="none"
           id="path19955"
           style="fill:#ffffff" /><path
           d="m 129.12,54.968 c -4.557,-8.071 -9.114,-16.141 -13.671,-24.211 -3.17,-5.614 -11.81,-0.576 -8.635,5.047 4.557,8.071 9.114,16.141 13.671,24.211 3.17,5.614 11.81,0.576 8.63,-5.047 z"
           i:knockout="Off"
           id="path19957"
           style="fill:#ffffff" /></g></g><g
       i:knockout="Off"
       id="g19969"
       style="fill:#ffffff"><g
         id="g19967"
         style="fill:#ffffff"><path
           i:knockout="Off"
           d="M 217.44,33 V 4.837"
           fill="none"
           id="path19963"
           style="fill:#ffffff" /><path
           d="M 222.44,33 V 4.837 c 0,-6.449 -10,-6.449 -10,0 V 33 c 0,6.449 10,6.449 10,0 z"
           i:knockout="Off"
           id="path19965"
           style="fill:#ffffff" /></g></g><g
       i:knockout="Off"
       id="g19977"
       style="fill:#ffffff"><g
         id="g19975"
         style="fill:#ffffff"><path
           i:knockout="Off"
           d="M 310.24,58.288 323.734,33.28"
           fill="none"
           id="path19971"
           style="fill:#ffffff" /><path
           d="m 314.56,60.812 c 4.498,-8.336 8.996,-16.672 13.494,-25.008 3.062,-5.674 -5.572,-10.723 -8.635,-5.047 -4.498,8.336 -8.996,16.672 -13.494,25.008 -3.07,5.674 5.57,10.723 8.63,5.047 z"
           i:knockout="Off"
           id="path19973"
           style="fill:#ffffff" /></g></g><g
       i:knockout="Off"
       id="g19985"
       style="fill:#ffffff"><g
         id="g19983"
         style="fill:#ffffff"><path
           i:knockout="Off"
           d="m 376.84,125.88 24.75,-14.749"
           fill="none"
           id="path19979"
           style="fill:#ffffff" /><path
           d="m 379.36,130.2 c 8.25,-4.917 16.5,-9.833 24.75,-14.749 5.532,-3.297 0.507,-11.944 -5.047,-8.635 -8.25,4.917 -16.5,9.833 -24.75,14.749 -5.53,3.29 -0.5,11.94 5.05,8.63 z"
           i:knockout="Off"
           id="path19981"
           style="fill:#ffffff" /></g></g><g
       i:knockout="Off"
       id="g19993"
       style="fill:#ffffff"><g
         id="g19991"
         style="fill:#ffffff"><path
           i:knockout="Off"
           d="m 401.44,217.44 h 28.598"
           fill="none"
           id="path19987"
           style="fill:#ffffff" /><path
           d="m 401.44,222.44 h 28.598 c 6.448,0 6.448,-10 0,-10 H 401.44 c -6.45,0 -6.45,10 0,10 z"
           i:knockout="Off"
           id="path19989"
           style="fill:#ffffff" /></g></g><g
       i:knockout="Off"
       id="g20001"
       style="fill:#ffffff"><g
         id="g19999"
         style="fill:#ffffff"><path
           i:knockout="Off"
           d="m 377.2,309.8 24.39,13.93"
           fill="none"
           id="path19995"
           style="fill:#ffffff" /><path
           d="m 374.68,314.12 c 8.13,4.644 16.26,9.286 24.39,13.93 5.608,3.203 10.645,-5.438 5.047,-8.635 -8.13,-4.644 -16.26,-9.286 -24.39,-13.93 -5.61,-3.21 -10.65,5.43 -5.05,8.63 z"
           i:knockout="Off"
           id="path19997"
           style="fill:#ffffff" /></g></g><g
       i:knockout="Off"
       id="g20009"
       style="fill:#ffffff"><g
         id="g20007"
         style="fill:#ffffff"><path
           i:knockout="Off"
           d="m 309.52,376.3 14.211,25.288"
           fill="none"
           id="path20003"
           style="fill:#ffffff" /><path
           d="m 305.21,378.83 c 4.737,8.43 9.474,16.859 14.211,25.288 3.159,5.621 11.798,0.581 8.635,-5.047 -4.737,-8.43 -9.474,-16.858 -14.211,-25.288 -3.17,-5.62 -11.81,-0.58 -8.64,5.05 z"
           i:knockout="Off"
           id="path20005"
           style="fill:#ffffff" /></g></g></g><circle
     cx="60"
     cy="60"
     r="52"
     fill="#ffffff"
     id="circle4-6"
     style="fill:#ffffff;fill-opacity:0;fill-rule:evenodd;filter:url(#filter5216)" /><g
     fill="#000000"
     transform="translate(32,36)"
     id="g16"
     style="fill-rule:evenodd;fill:#ffffff;fill-opacity:1;filter:url(#filter11510)"><path
       d="m -0.701,15.987 31.35,0.191 a 0.5,0.5 0 0 1 0.496,0.5 v 0.003 a 0.497,0.497 0 0 1 -0.5,0.497 l -31.35,-0.191 a 0.5,0.5 0 0 1 -0.496,-0.5 v -0.003 a 0.497,0.497 0 0 1 0.5,-0.497 z"
       transform="rotate(-150,14.972,16.583)"
       id="path10"
       style="fill:#ffffff;fill-opacity:1" /><path
       d="m 25.473,12.349 46.517,0.367 a 0.5,0.5 0 0 1 0.496,0.5 v 0.004 a 0.496,0.496 0 0 1 -0.5,0.496 L 25.469,13.349 a 0.5,0.5 0 0 1 -0.496,-0.5 v -0.004 a 0.496,0.496 0 0 1 0.5,-0.496 z"
       transform="rotate(-30,48.73,13.032)"
       id="path12"
       style="fill:#ffffff;fill-opacity:1" /><circle
       cx="28.5"
       cy="24.5"
       r="2.5"
       id="circle14"
       style="fill:#ffffff;fill-opacity:1" /></g><path
     id="rect376-6"
     style="mix-blend-mode:normal;fill:url(#linearGradient12760);fill-opacity:1;stroke-width:9.37934;filter:url(#filter9686);stop-color:#000000"
     d="M 0,0 V 120 H 120 V 0 Z M 60,8 A 52,52 0 0 1 112,60 52,52 0 0 1 60,112 52,52 0 0 1 8,60 52,52 0 0 1 60,8 Z" /><circle
     style="font-variation-settings:normal;opacity:1;fill:none;fill-opacity:1;stroke-width:3;stroke-linecap:butt;stroke-linejoin:miter;stroke-miterlimit:4;stroke-dasharray:none;stroke-dashoffset:0;stroke-opacity:1;stop-color:#000000;stop-opacity:1;stroke:#ffffff;filter:url(#filter15557)"
     id="path12707"
     cx="60"
     cy="60"
     r="51.940495" /></svg>
